<svg xmlns="http://www.w3.org/2000/svg" width="1360" height="900" viewBox="0 0 1360 900">
<rect width="100%" height="100%" fill="#f7fafc"/>
<text x="70" y="40" font-size="28" font-weight="700" fill="#102a43">10000 Context: 2 GPU vs 4 GPU</text>
<text x="70" y="64" font-size="13" fill="#486581">Historical baseline vs current deployment</text>
<rect x="70" y="90" width="590" height="320" rx="14" fill="#ffffff" stroke="#d8dee9"/>
<text x="88" y="116" font-size="18" font-weight="700" fill="#102a43">Successful req/s</text>
<text x="88" y="136" font-size="12" fill="#486581">req/s</text>
<line x1="126" y1="118.0" x2="632" y2="118.0" stroke="#e6edf3"/>
<text x="118" y="122.0" text-anchor="end" font-size="11" fill="#7b8794">0.4</text>
<line x1="126" y1="176.5" x2="632" y2="176.5" stroke="#e6edf3"/>
<text x="118" y="180.5" text-anchor="end" font-size="11" fill="#7b8794">0.3</text>
<line x1="126" y1="235.0" x2="632" y2="235.0" stroke="#e6edf3"/>
<text x="118" y="239.0" text-anchor="end" font-size="11" fill="#7b8794">0.2</text>
<line x1="126" y1="293.5" x2="632" y2="293.5" stroke="#e6edf3"/>
<text x="118" y="297.5" text-anchor="end" font-size="11" fill="#7b8794">0.1</text>
<line x1="126" y1="352.0" x2="632" y2="352.0" stroke="#e6edf3"/>
<text x="118" y="356.0" text-anchor="end" font-size="11" fill="#7b8794">0.0</text>
<line x1="126.0" y1="118" x2="126.0" y2="352" stroke="#f0f4f8"/>
<text x="126.0" y="372" text-anchor="middle" font-size="11" fill="#7b8794">5</text>
<line x1="136.8" y1="118" x2="136.8" y2="352" stroke="#f0f4f8"/>
<text x="136.8" y="372" text-anchor="middle" font-size="11" fill="#7b8794">10</text>
<line x1="158.3" y1="118" x2="158.3" y2="352" stroke="#f0f4f8"/>
<text x="158.3" y="372" text-anchor="middle" font-size="11" fill="#7b8794">20</text>
<line x1="201.4" y1="118" x2="201.4" y2="352" stroke="#f0f4f8"/>
<text x="201.4" y="372" text-anchor="middle" font-size="11" fill="#7b8794">40</text>
<line x1="287.5" y1="118" x2="287.5" y2="352" stroke="#f0f4f8"/>
<text x="287.5" y="372" text-anchor="middle" font-size="11" fill="#7b8794">80</text>
<line x1="459.7" y1="118" x2="459.7" y2="352" stroke="#f0f4f8"/>
<text x="459.7" y="372" text-anchor="middle" font-size="11" fill="#7b8794">160</text>
<line x1="632.0" y1="118" x2="632.0" y2="352" stroke="#f0f4f8"/>
<text x="632.0" y="372" text-anchor="middle" font-size="11" fill="#7b8794">240</text>
<text x="379.0" y="392" text-anchor="middle" font-size="12" fill="#486581">Concurrency</text>
<line x1="480" y1="114" x2="498" y2="114" stroke="#0b6e4f" stroke-width="3"/>
<text x="504" y="118" font-size="12" fill="#334e68">2GPU history</text>
<path d="M 126.0 303.2 L 136.8 264.4 L 158.3 208.6 L 201.4 139.3 L 287.5 352.0 L 459.7 352.0" fill="none" stroke="#0b6e4f" stroke-width="3"/>
<circle cx="126.0" cy="303.2" r="4" fill="#0b6e4f"/>
<circle cx="136.8" cy="264.4" r="4" fill="#0b6e4f"/>
<circle cx="158.3" cy="208.6" r="4" fill="#0b6e4f"/>
<circle cx="201.4" cy="139.3" r="4" fill="#0b6e4f"/>
<circle cx="287.5" cy="352.0" r="4" fill="#0b6e4f"/>
<circle cx="459.7" cy="352.0" r="4" fill="#0b6e4f"/>
<line x1="480" y1="132" x2="498" y2="132" stroke="#c44900" stroke-width="3"/>
<text x="504" y="136" font-size="12" fill="#334e68">4GPU current</text>
<path d="M 126.0 314.7 L 136.8 311.2 L 158.3 253.9 L 201.4 208.5 L 287.5 352.0 L 459.7 352.0 L 632.0 352.0" fill="none" stroke="#c44900" stroke-width="3"/>
<circle cx="126.0" cy="314.7" r="4" fill="#c44900"/>
<circle cx="136.8" cy="311.2" r="4" fill="#c44900"/>
<circle cx="158.3" cy="253.9" r="4" fill="#c44900"/>
<circle cx="201.4" cy="208.5" r="4" fill="#c44900"/>
<circle cx="287.5" cy="352.0" r="4" fill="#c44900"/>
<circle cx="459.7" cy="352.0" r="4" fill="#c44900"/>
<circle cx="632.0" cy="352.0" r="4" fill="#c44900"/>
<rect x="690" y="90" width="590" height="320" rx="14" fill="#ffffff" stroke="#d8dee9"/>
<text x="708" y="116" font-size="18" font-weight="700" fill="#102a43">Total tok/s</text>
<text x="708" y="136" font-size="12" fill="#486581">tok/s</text>
<line x1="746" y1="118.0" x2="1252" y2="118.0" stroke="#e6edf3"/>
<text x="738" y="122.0" text-anchor="end" font-size="11" fill="#7b8794">4100.3</text>
<line x1="746" y1="176.5" x2="1252" y2="176.5" stroke="#e6edf3"/>
<text x="738" y="180.5" text-anchor="end" font-size="11" fill="#7b8794">3075.2</text>
<line x1="746" y1="235.0" x2="1252" y2="235.0" stroke="#e6edf3"/>
<text x="738" y="239.0" text-anchor="end" font-size="11" fill="#7b8794">2050.2</text>
<line x1="746" y1="293.5" x2="1252" y2="293.5" stroke="#e6edf3"/>
<text x="738" y="297.5" text-anchor="end" font-size="11" fill="#7b8794">1025.1</text>
<line x1="746" y1="352.0" x2="1252" y2="352.0" stroke="#e6edf3"/>
<text x="738" y="356.0" text-anchor="end" font-size="11" fill="#7b8794">0.0</text>
<line x1="746.0" y1="118" x2="746.0" y2="352" stroke="#f0f4f8"/>
<text x="746.0" y="372" text-anchor="middle" font-size="11" fill="#7b8794">5</text>
<line x1="756.8" y1="118" x2="756.8" y2="352" stroke="#f0f4f8"/>
<text x="756.8" y="372" text-anchor="middle" font-size="11" fill="#7b8794">10</text>
<line x1="778.3" y1="118" x2="778.3" y2="352" stroke="#f0f4f8"/>
<text x="778.3" y="372" text-anchor="middle" font-size="11" fill="#7b8794">20</text>
<line x1="821.4" y1="118" x2="821.4" y2="352" stroke="#f0f4f8"/>
<text x="821.4" y="372" text-anchor="middle" font-size="11" fill="#7b8794">40</text>
<line x1="907.5" y1="118" x2="907.5" y2="352" stroke="#f0f4f8"/>
<text x="907.5" y="372" text-anchor="middle" font-size="11" fill="#7b8794">80</text>
<line x1="1079.7" y1="118" x2="1079.7" y2="352" stroke="#f0f4f8"/>
<text x="1079.7" y="372" text-anchor="middle" font-size="11" fill="#7b8794">160</text>
<line x1="1252.0" y1="118" x2="1252.0" y2="352" stroke="#f0f4f8"/>
<text x="1252.0" y="372" text-anchor="middle" font-size="11" fill="#7b8794">240</text>
<text x="999.0" y="392" text-anchor="middle" font-size="12" fill="#486581">Concurrency</text>
<line x1="1100" y1="114" x2="1118" y2="114" stroke="#0b6e4f" stroke-width="3"/>
<text x="1124" y="118" font-size="12" fill="#334e68">2GPU history</text>
<path d="M 746.0 303.2 L 756.8 264.4 L 778.3 208.6 L 821.4 139.3 L 907.5 352.0 L 1079.7 352.0" fill="none" stroke="#0b6e4f" stroke-width="3"/>
<circle cx="746.0" cy="303.2" r="4" fill="#0b6e4f"/>
<circle cx="756.8" cy="264.4" r="4" fill="#0b6e4f"/>
<circle cx="778.3" cy="208.6" r="4" fill="#0b6e4f"/>
<circle cx="821.4" cy="139.3" r="4" fill="#0b6e4f"/>
<circle cx="907.5" cy="352.0" r="4" fill="#0b6e4f"/>
<circle cx="1079.7" cy="352.0" r="4" fill="#0b6e4f"/>
<line x1="1100" y1="132" x2="1118" y2="132" stroke="#c44900" stroke-width="3"/>
<text x="1124" y="136" font-size="12" fill="#334e68">4GPU current</text>
<path d="M 746.0 314.7 L 756.8 311.2 L 778.3 253.9 L 821.4 208.5 L 907.5 352.0 L 1079.7 352.0 L 1252.0 352.0" fill="none" stroke="#c44900" stroke-width="3"/>
<circle cx="746.0" cy="314.7" r="4" fill="#c44900"/>
<circle cx="756.8" cy="311.2" r="4" fill="#c44900"/>
<circle cx="778.3" cy="253.9" r="4" fill="#c44900"/>
<circle cx="821.4" cy="208.5" r="4" fill="#c44900"/>
<circle cx="907.5" cy="352.0" r="4" fill="#c44900"/>
<circle cx="1079.7" cy="352.0" r="4" fill="#c44900"/>
<circle cx="1252.0" cy="352.0" r="4" fill="#c44900"/>
<rect x="70" y="470" width="590" height="320" rx="14" fill="#ffffff" stroke="#d8dee9"/>
<text x="88" y="496" font-size="18" font-weight="700" fill="#102a43">Mean Latency</text>
<text x="88" y="516" font-size="12" fill="#486581">ms</text>
<line x1="126" y1="498.0" x2="632" y2="498.0" stroke="#e6edf3"/>
<text x="118" y="502.0" text-anchor="end" font-size="11" fill="#7b8794">187340.5</text>
<line x1="126" y1="556.5" x2="632" y2="556.5" stroke="#e6edf3"/>
<text x="118" y="560.5" text-anchor="end" font-size="11" fill="#7b8794">140505.4</text>
<line x1="126" y1="615.0" x2="632" y2="615.0" stroke="#e6edf3"/>
<text x="118" y="619.0" text-anchor="end" font-size="11" fill="#7b8794">93670.3</text>
<line x1="126" y1="673.5" x2="632" y2="673.5" stroke="#e6edf3"/>
<text x="118" y="677.5" text-anchor="end" font-size="11" fill="#7b8794">46835.1</text>
<line x1="126" y1="732.0" x2="632" y2="732.0" stroke="#e6edf3"/>
<text x="118" y="736.0" text-anchor="end" font-size="11" fill="#7b8794">0.0</text>
<line x1="126.0" y1="498" x2="126.0" y2="732" stroke="#f0f4f8"/>
<text x="126.0" y="752" text-anchor="middle" font-size="11" fill="#7b8794">5</text>
<line x1="136.8" y1="498" x2="136.8" y2="732" stroke="#f0f4f8"/>
<text x="136.8" y="752" text-anchor="middle" font-size="11" fill="#7b8794">10</text>
<line x1="158.3" y1="498" x2="158.3" y2="732" stroke="#f0f4f8"/>
<text x="158.3" y="752" text-anchor="middle" font-size="11" fill="#7b8794">20</text>
<line x1="201.4" y1="498" x2="201.4" y2="732" stroke="#f0f4f8"/>
<text x="201.4" y="752" text-anchor="middle" font-size="11" fill="#7b8794">40</text>
<line x1="287.5" y1="498" x2="287.5" y2="732" stroke="#f0f4f8"/>
<text x="287.5" y="752" text-anchor="middle" font-size="11" fill="#7b8794">80</text>
<line x1="459.7" y1="498" x2="459.7" y2="732" stroke="#f0f4f8"/>
<text x="459.7" y="752" text-anchor="middle" font-size="11" fill="#7b8794">160</text>
<line x1="632.0" y1="498" x2="632.0" y2="732" stroke="#f0f4f8"/>
<text x="632.0" y="752" text-anchor="middle" font-size="11" fill="#7b8794">240</text>
<text x="379.0" y="772" text-anchor="middle" font-size="12" fill="#486581">Concurrency</text>
<line x1="480" y1="494" x2="498" y2="494" stroke="#0b6e4f" stroke-width="3"/>
<text x="504" y="498" font-size="12" fill="#334e68">2GPU history</text>
<path d="M 126.0 656.4 L 136.8 646.4 L 158.3 626.8 L 201.4 589.0" fill="none" stroke="#0b6e4f" stroke-width="3"/>
<circle cx="126.0" cy="656.4" r="4" fill="#0b6e4f"/>
<circle cx="136.8" cy="646.4" r="4" fill="#0b6e4f"/>
<circle cx="158.3" cy="626.8" r="4" fill="#0b6e4f"/>
<circle cx="201.4" cy="589.0" r="4" fill="#0b6e4f"/>
<line x1="480" y1="512" x2="498" y2="512" stroke="#c44900" stroke-width="3"/>
<text x="504" y="516" font-size="12" fill="#334e68">4GPU current</text>
<path d="M 126.0 634.7 L 136.8 545.3 L 158.3 577.6 L 201.4 519.3" fill="none" stroke="#c44900" stroke-width="3"/>
<circle cx="126.0" cy="634.7" r="4" fill="#c44900"/>
<circle cx="136.8" cy="545.3" r="4" fill="#c44900"/>
<circle cx="158.3" cy="577.6" r="4" fill="#c44900"/>
<circle cx="201.4" cy="519.3" r="4" fill="#c44900"/>
<rect x="690" y="470" width="590" height="320" rx="14" fill="#ffffff" stroke="#d8dee9"/>
<text x="708" y="496" font-size="18" font-weight="700" fill="#102a43">Timeout Ratio</text>
<text x="708" y="516" font-size="12" fill="#486581">%</text>
<line x1="746" y1="498.0" x2="1252" y2="498.0" stroke="#e6edf3"/>
<text x="738" y="502.0" text-anchor="end" font-size="11" fill="#7b8794">110.0</text>
<line x1="746" y1="556.5" x2="1252" y2="556.5" stroke="#e6edf3"/>
<text x="738" y="560.5" text-anchor="end" font-size="11" fill="#7b8794">82.5</text>
<line x1="746" y1="615.0" x2="1252" y2="615.0" stroke="#e6edf3"/>
<text x="738" y="619.0" text-anchor="end" font-size="11" fill="#7b8794">55.0</text>
<line x1="746" y1="673.5" x2="1252" y2="673.5" stroke="#e6edf3"/>
<text x="738" y="677.5" text-anchor="end" font-size="11" fill="#7b8794">27.5</text>
<line x1="746" y1="732.0" x2="1252" y2="732.0" stroke="#e6edf3"/>
<text x="738" y="736.0" text-anchor="end" font-size="11" fill="#7b8794">0.0</text>
<line x1="746.0" y1="498" x2="746.0" y2="732" stroke="#f0f4f8"/>
<text x="746.0" y="752" text-anchor="middle" font-size="11" fill="#7b8794">5</text>
<line x1="756.8" y1="498" x2="756.8" y2="732" stroke="#f0f4f8"/>
<text x="756.8" y="752" text-anchor="middle" font-size="11" fill="#7b8794">10</text>
<line x1="778.3" y1="498" x2="778.3" y2="732" stroke="#f0f4f8"/>
<text x="778.3" y="752" text-anchor="middle" font-size="11" fill="#7b8794">20</text>
<line x1="821.4" y1="498" x2="821.4" y2="732" stroke="#f0f4f8"/>
<text x="821.4" y="752" text-anchor="middle" font-size="11" fill="#7b8794">40</text>
<line x1="907.5" y1="498" x2="907.5" y2="732" stroke="#f0f4f8"/>
<text x="907.5" y="752" text-anchor="middle" font-size="11" fill="#7b8794">80</text>
<line x1="1079.7" y1="498" x2="1079.7" y2="732" stroke="#f0f4f8"/>
<text x="1079.7" y="752" text-anchor="middle" font-size="11" fill="#7b8794">160</text>
<line x1="1252.0" y1="498" x2="1252.0" y2="732" stroke="#f0f4f8"/>
<text x="1252.0" y="752" text-anchor="middle" font-size="11" fill="#7b8794">240</text>
<text x="999.0" y="772" text-anchor="middle" font-size="12" fill="#486581">Concurrency</text>
<line x1="1100" y1="494" x2="1118" y2="494" stroke="#0b6e4f" stroke-width="3"/>
<text x="1124" y="498" font-size="12" fill="#334e68">2GPU history</text>
<path d="M 746.0 732.0 L 756.8 732.0 L 778.3 732.0 L 821.4 732.0 L 907.5 519.3 L 1079.7 519.3" fill="none" stroke="#0b6e4f" stroke-width="3"/>
<circle cx="746.0" cy="732.0" r="4" fill="#0b6e4f"/>
<circle cx="756.8" cy="732.0" r="4" fill="#0b6e4f"/>
<circle cx="778.3" cy="732.0" r="4" fill="#0b6e4f"/>
<circle cx="821.4" cy="732.0" r="4" fill="#0b6e4f"/>
<circle cx="907.5" cy="519.3" r="4" fill="#0b6e4f"/>
<circle cx="1079.7" cy="519.3" r="4" fill="#0b6e4f"/>
<line x1="1100" y1="512" x2="1118" y2="512" stroke="#c44900" stroke-width="3"/>
<text x="1124" y="516" font-size="12" fill="#334e68">4GPU current</text>
<path d="M 746.0 732.0 L 756.8 732.0 L 778.3 732.0 L 821.4 732.0 L 907.5 519.3 L 1079.7 519.3 L 1252.0 519.3" fill="none" stroke="#c44900" stroke-width="3"/>
<circle cx="746.0" cy="732.0" r="4" fill="#c44900"/>
<circle cx="756.8" cy="732.0" r="4" fill="#c44900"/>
<circle cx="778.3" cy="732.0" r="4" fill="#c44900"/>
<circle cx="821.4" cy="732.0" r="4" fill="#c44900"/>
<circle cx="907.5" cy="519.3" r="4" fill="#c44900"/>
<circle cx="1079.7" cy="519.3" r="4" fill="#c44900"/>
<circle cx="1252.0" cy="519.3" r="4" fill="#c44900"/>
</svg>
