<svg xmlns="http://www.w3.org/2000/svg" width="1380" height="960" viewBox="0 0 1380 960">
<rect width="100%" height="100%" fill="#f7fafc"/>
<text x="70" y="38" font-size="28" font-weight="700" fill="#102a43">VLLM Throughput Benchmark</text>
<text x="70" y="62" font-size="13" fill="#486581">Endpoint: http://10.249.40.204:62272/v1/completions | Payload target: 8192/1024 tokens</text>
<rect x="70" y="80" width="590" height="320" rx="14" fill="#ffffff" stroke="#d8dee9"/>
<text x="90" y="108" font-size="18" font-weight="700" fill="#102a43">Latency</text>
<text x="90" y="128" font-size="12" fill="#486581">Latency (ms)</text>
<line x1="120" y1="100.0" x2="620" y2="100.0" stroke="#e6edf3"/>
<text x="112" y="104.0" text-anchor="end" font-size="11" fill="#7b8794">197973.5</text>
<line x1="120" y1="162.5" x2="620" y2="162.5" stroke="#e6edf3"/>
<text x="112" y="166.5" text-anchor="end" font-size="11" fill="#7b8794">148480.1</text>
<line x1="120" y1="225.0" x2="620" y2="225.0" stroke="#e6edf3"/>
<text x="112" y="229.0" text-anchor="end" font-size="11" fill="#7b8794">98986.7</text>
<line x1="120" y1="287.5" x2="620" y2="287.5" stroke="#e6edf3"/>
<text x="112" y="291.5" text-anchor="end" font-size="11" fill="#7b8794">49493.4</text>
<line x1="120" y1="350.0" x2="620" y2="350.0" stroke="#e6edf3"/>
<text x="112" y="354.0" text-anchor="end" font-size="11" fill="#7b8794">0.0</text>
<line x1="120.0" y1="100" x2="120.0" y2="350" stroke="#f0f4f8"/>
<text x="120.0" y="372" text-anchor="middle" font-size="11" fill="#7b8794">10</text>
<line x1="158.5" y1="100" x2="158.5" y2="350" stroke="#f0f4f8"/>
<text x="158.5" y="372" text-anchor="middle" font-size="11" fill="#7b8794">40</text>
<line x1="209.7" y1="100" x2="209.7" y2="350" stroke="#f0f4f8"/>
<text x="209.7" y="372" text-anchor="middle" font-size="11" fill="#7b8794">80</text>
<line x1="261.0" y1="100" x2="261.0" y2="350" stroke="#f0f4f8"/>
<text x="261.0" y="372" text-anchor="middle" font-size="11" fill="#7b8794">120</text>
<line x1="312.3" y1="100" x2="312.3" y2="350" stroke="#f0f4f8"/>
<text x="312.3" y="372" text-anchor="middle" font-size="11" fill="#7b8794">160</text>
<line x1="363.6" y1="100" x2="363.6" y2="350" stroke="#f0f4f8"/>
<text x="363.6" y="372" text-anchor="middle" font-size="11" fill="#7b8794">200</text>
<line x1="491.8" y1="100" x2="491.8" y2="350" stroke="#f0f4f8"/>
<text x="491.8" y="372" text-anchor="middle" font-size="11" fill="#7b8794">300</text>
<line x1="620.0" y1="100" x2="620.0" y2="350" stroke="#f0f4f8"/>
<text x="620.0" y="372" text-anchor="middle" font-size="11" fill="#7b8794">400</text>
<text x="370.0" y="392" text-anchor="middle" font-size="12" fill="#486581">Concurrency</text>
<line x1="490" y1="106" x2="508" y2="106" stroke="#0b6e4f" stroke-width="3"/>
<text x="514" y="110" font-size="12" fill="#334e68">Mean</text>
<path d="M 120.0 303.8 L 158.5 250.8 L 209.7 199.1 L 261.0 207.1 L 312.3 206.9 L 363.6 205.9 L 491.8 207.2 L 620.0 207.2" fill="none" stroke="#0b6e4f" stroke-width="3"/>
<circle cx="120.0" cy="303.8" r="4" fill="#0b6e4f"/>
<circle cx="158.5" cy="250.8" r="4" fill="#0b6e4f"/>
<circle cx="209.7" cy="199.1" r="4" fill="#0b6e4f"/>
<circle cx="261.0" cy="207.1" r="4" fill="#0b6e4f"/>
<circle cx="312.3" cy="206.9" r="4" fill="#0b6e4f"/>
<circle cx="363.6" cy="205.9" r="4" fill="#0b6e4f"/>
<circle cx="491.8" cy="207.2" r="4" fill="#0b6e4f"/>
<circle cx="620.0" cy="207.2" r="4" fill="#0b6e4f"/>
<line x1="490" y1="124" x2="508" y2="124" stroke="#c44900" stroke-width="3"/>
<text x="514" y="128" font-size="12" fill="#334e68">P99</text>
<path d="M 120.0 303.7 L 158.5 225.1 L 209.7 130.7 L 261.0 123.8 L 312.3 123.7 L 363.6 122.7 L 491.8 124.0 L 620.0 124.0" fill="none" stroke="#c44900" stroke-width="3"/>
<circle cx="120.0" cy="303.7" r="4" fill="#c44900"/>
<circle cx="158.5" cy="225.1" r="4" fill="#c44900"/>
<circle cx="209.7" cy="130.7" r="4" fill="#c44900"/>
<circle cx="261.0" cy="123.8" r="4" fill="#c44900"/>
<circle cx="312.3" cy="123.7" r="4" fill="#c44900"/>
<circle cx="363.6" cy="122.7" r="4" fill="#c44900"/>
<circle cx="491.8" cy="124.0" r="4" fill="#c44900"/>
<circle cx="620.0" cy="124.0" r="4" fill="#c44900"/>
<rect x="740" y="80" width="590" height="320" rx="14" fill="#ffffff" stroke="#d8dee9"/>
<text x="760" y="108" font-size="18" font-weight="700" fill="#102a43">Failure Ratio</text>
<text x="760" y="128" font-size="12" fill="#486581">Rate (%)</text>
<line x1="790" y1="100.0" x2="1290" y2="100.0" stroke="#e6edf3"/>
<text x="782" y="104.0" text-anchor="end" font-size="11" fill="#7b8794">92.4</text>
<line x1="790" y1="162.5" x2="1290" y2="162.5" stroke="#e6edf3"/>
<text x="782" y="166.5" text-anchor="end" font-size="11" fill="#7b8794">69.3</text>
<line x1="790" y1="225.0" x2="1290" y2="225.0" stroke="#e6edf3"/>
<text x="782" y="229.0" text-anchor="end" font-size="11" fill="#7b8794">46.2</text>
<line x1="790" y1="287.5" x2="1290" y2="287.5" stroke="#e6edf3"/>
<text x="782" y="291.5" text-anchor="end" font-size="11" fill="#7b8794">23.1</text>
<line x1="790" y1="350.0" x2="1290" y2="350.0" stroke="#e6edf3"/>
<text x="782" y="354.0" text-anchor="end" font-size="11" fill="#7b8794">0.0</text>
<line x1="790.0" y1="100" x2="790.0" y2="350" stroke="#f0f4f8"/>
<text x="790.0" y="372" text-anchor="middle" font-size="11" fill="#7b8794">10</text>
<line x1="828.5" y1="100" x2="828.5" y2="350" stroke="#f0f4f8"/>
<text x="828.5" y="372" text-anchor="middle" font-size="11" fill="#7b8794">40</text>
<line x1="879.7" y1="100" x2="879.7" y2="350" stroke="#f0f4f8"/>
<text x="879.7" y="372" text-anchor="middle" font-size="11" fill="#7b8794">80</text>
<line x1="931.0" y1="100" x2="931.0" y2="350" stroke="#f0f4f8"/>
<text x="931.0" y="372" text-anchor="middle" font-size="11" fill="#7b8794">120</text>
<line x1="982.3" y1="100" x2="982.3" y2="350" stroke="#f0f4f8"/>
<text x="982.3" y="372" text-anchor="middle" font-size="11" fill="#7b8794">160</text>
<line x1="1033.6" y1="100" x2="1033.6" y2="350" stroke="#f0f4f8"/>
<text x="1033.6" y="372" text-anchor="middle" font-size="11" fill="#7b8794">200</text>
<line x1="1161.8" y1="100" x2="1161.8" y2="350" stroke="#f0f4f8"/>
<text x="1161.8" y="372" text-anchor="middle" font-size="11" fill="#7b8794">300</text>
<line x1="1290.0" y1="100" x2="1290.0" y2="350" stroke="#f0f4f8"/>
<text x="1290.0" y="372" text-anchor="middle" font-size="11" fill="#7b8794">400</text>
<text x="1040.0" y="392" text-anchor="middle" font-size="12" fill="#486581">Concurrency</text>
<line x1="1160" y1="106" x2="1178" y2="106" stroke="#9a031e" stroke-width="3"/>
<text x="1184" y="110" font-size="12" fill="#334e68">Timeout</text>
<path d="M 790.0 350.0 L 828.5 350.0 L 879.7 322.9 L 931.0 223.7 L 982.3 187.7 L 1033.6 167.4 L 1161.8 137.2 L 1290.0 122.7" fill="none" stroke="#9a031e" stroke-width="3"/>
<circle cx="790.0" cy="350.0" r="4" fill="#9a031e"/>
<circle cx="828.5" cy="350.0" r="4" fill="#9a031e"/>
<circle cx="879.7" cy="322.9" r="4" fill="#9a031e"/>
<circle cx="931.0" cy="223.7" r="4" fill="#9a031e"/>
<circle cx="982.3" cy="187.7" r="4" fill="#9a031e"/>
<circle cx="1033.6" cy="167.4" r="4" fill="#9a031e"/>
<circle cx="1161.8" cy="137.2" r="4" fill="#9a031e"/>
<circle cx="1290.0" cy="122.7" r="4" fill="#9a031e"/>
<line x1="1160" y1="124" x2="1178" y2="124" stroke="#5f0f40" stroke-width="3"/>
<text x="1184" y="128" font-size="12" fill="#334e68">Error</text>
<path d="M 790.0 350.0 L 828.5 350.0 L 879.7 350.0 L 931.0 350.0 L 982.3 350.0 L 1033.6 350.0 L 1161.8 350.0 L 1290.0 350.0" fill="none" stroke="#5f0f40" stroke-width="3"/>
<circle cx="790.0" cy="350.0" r="4" fill="#5f0f40"/>
<circle cx="828.5" cy="350.0" r="4" fill="#5f0f40"/>
<circle cx="879.7" cy="350.0" r="4" fill="#5f0f40"/>
<circle cx="931.0" cy="350.0" r="4" fill="#5f0f40"/>
<circle cx="982.3" cy="350.0" r="4" fill="#5f0f40"/>
<circle cx="1033.6" cy="350.0" r="4" fill="#5f0f40"/>
<circle cx="1161.8" cy="350.0" r="4" fill="#5f0f40"/>
<circle cx="1290.0" cy="350.0" r="4" fill="#5f0f40"/>
<rect x="70" y="520" width="590" height="320" rx="14" fill="#ffffff" stroke="#d8dee9"/>
<text x="90" y="548" font-size="18" font-weight="700" fill="#102a43">Request Throughput</text>
<text x="90" y="568" font-size="12" fill="#486581">req/s</text>
<line x1="120" y1="540.0" x2="620" y2="540.0" stroke="#e6edf3"/>
<text x="112" y="544.0" text-anchor="end" font-size="11" fill="#7b8794">0.4</text>
<line x1="120" y1="602.5" x2="620" y2="602.5" stroke="#e6edf3"/>
<text x="112" y="606.5" text-anchor="end" font-size="11" fill="#7b8794">0.3</text>
<line x1="120" y1="665.0" x2="620" y2="665.0" stroke="#e6edf3"/>
<text x="112" y="669.0" text-anchor="end" font-size="11" fill="#7b8794">0.2</text>
<line x1="120" y1="727.5" x2="620" y2="727.5" stroke="#e6edf3"/>
<text x="112" y="731.5" text-anchor="end" font-size="11" fill="#7b8794">0.1</text>
<line x1="120" y1="790.0" x2="620" y2="790.0" stroke="#e6edf3"/>
<text x="112" y="794.0" text-anchor="end" font-size="11" fill="#7b8794">0.0</text>
<line x1="120.0" y1="540" x2="120.0" y2="790" stroke="#f0f4f8"/>
<text x="120.0" y="812" text-anchor="middle" font-size="11" fill="#7b8794">10</text>
<line x1="158.5" y1="540" x2="158.5" y2="790" stroke="#f0f4f8"/>
<text x="158.5" y="812" text-anchor="middle" font-size="11" fill="#7b8794">40</text>
<line x1="209.7" y1="540" x2="209.7" y2="790" stroke="#f0f4f8"/>
<text x="209.7" y="812" text-anchor="middle" font-size="11" fill="#7b8794">80</text>
<line x1="261.0" y1="540" x2="261.0" y2="790" stroke="#f0f4f8"/>
<text x="261.0" y="812" text-anchor="middle" font-size="11" fill="#7b8794">120</text>
<line x1="312.3" y1="540" x2="312.3" y2="790" stroke="#f0f4f8"/>
<text x="312.3" y="812" text-anchor="middle" font-size="11" fill="#7b8794">160</text>
<line x1="363.6" y1="540" x2="363.6" y2="790" stroke="#f0f4f8"/>
<text x="363.6" y="812" text-anchor="middle" font-size="11" fill="#7b8794">200</text>
<line x1="491.8" y1="540" x2="491.8" y2="790" stroke="#f0f4f8"/>
<text x="491.8" y="812" text-anchor="middle" font-size="11" fill="#7b8794">300</text>
<line x1="620.0" y1="540" x2="620.0" y2="790" stroke="#f0f4f8"/>
<text x="620.0" y="812" text-anchor="middle" font-size="11" fill="#7b8794">400</text>
<text x="370.0" y="832" text-anchor="middle" font-size="12" fill="#486581">Concurrency</text>
<line x1="490" y1="546" x2="508" y2="546" stroke="#005f73" stroke-width="3"/>
<text x="514" y="550" font-size="12" fill="#334e68">Successful req/s</text>
<path d="M 120.0 684.4 L 158.5 562.7 L 209.7 563.1 L 261.0 588.6 L 312.3 589.7 L 363.6 587.7 L 491.8 590.8 L 620.0 590.8" fill="none" stroke="#005f73" stroke-width="3"/>
<circle cx="120.0" cy="684.4" r="4" fill="#005f73"/>
<circle cx="158.5" cy="562.7" r="4" fill="#005f73"/>
<circle cx="209.7" cy="563.1" r="4" fill="#005f73"/>
<circle cx="261.0" cy="588.6" r="4" fill="#005f73"/>
<circle cx="312.3" cy="589.7" r="4" fill="#005f73"/>
<circle cx="363.6" cy="587.7" r="4" fill="#005f73"/>
<circle cx="491.8" cy="590.8" r="4" fill="#005f73"/>
<circle cx="620.0" cy="590.8" r="4" fill="#005f73"/>
<rect x="740" y="520" width="590" height="320" rx="14" fill="#ffffff" stroke="#d8dee9"/>
<text x="760" y="548" font-size="18" font-weight="700" fill="#102a43">Token Throughput</text>
<text x="760" y="568" font-size="12" fill="#486581">tok/s</text>
<line x1="790" y1="540.0" x2="1290" y2="540.0" stroke="#e6edf3"/>
<text x="782" y="544.0" text-anchor="end" font-size="11" fill="#7b8794">4001.5</text>
<line x1="790" y1="602.5" x2="1290" y2="602.5" stroke="#e6edf3"/>
<text x="782" y="606.5" text-anchor="end" font-size="11" fill="#7b8794">3001.1</text>
<line x1="790" y1="665.0" x2="1290" y2="665.0" stroke="#e6edf3"/>
<text x="782" y="669.0" text-anchor="end" font-size="11" fill="#7b8794">2000.7</text>
<line x1="790" y1="727.5" x2="1290" y2="727.5" stroke="#e6edf3"/>
<text x="782" y="731.5" text-anchor="end" font-size="11" fill="#7b8794">1000.4</text>
<line x1="790" y1="790.0" x2="1290" y2="790.0" stroke="#e6edf3"/>
<text x="782" y="794.0" text-anchor="end" font-size="11" fill="#7b8794">0.0</text>
<line x1="790.0" y1="540" x2="790.0" y2="790" stroke="#f0f4f8"/>
<text x="790.0" y="812" text-anchor="middle" font-size="11" fill="#7b8794">10</text>
<line x1="828.5" y1="540" x2="828.5" y2="790" stroke="#f0f4f8"/>
<text x="828.5" y="812" text-anchor="middle" font-size="11" fill="#7b8794">40</text>
<line x1="879.7" y1="540" x2="879.7" y2="790" stroke="#f0f4f8"/>
<text x="879.7" y="812" text-anchor="middle" font-size="11" fill="#7b8794">80</text>
<line x1="931.0" y1="540" x2="931.0" y2="790" stroke="#f0f4f8"/>
<text x="931.0" y="812" text-anchor="middle" font-size="11" fill="#7b8794">120</text>
<line x1="982.3" y1="540" x2="982.3" y2="790" stroke="#f0f4f8"/>
<text x="982.3" y="812" text-anchor="middle" font-size="11" fill="#7b8794">160</text>
<line x1="1033.6" y1="540" x2="1033.6" y2="790" stroke="#f0f4f8"/>
<text x="1033.6" y="812" text-anchor="middle" font-size="11" fill="#7b8794">200</text>
<line x1="1161.8" y1="540" x2="1161.8" y2="790" stroke="#f0f4f8"/>
<text x="1161.8" y="812" text-anchor="middle" font-size="11" fill="#7b8794">300</text>
<line x1="1290.0" y1="540" x2="1290.0" y2="790" stroke="#f0f4f8"/>
<text x="1290.0" y="812" text-anchor="middle" font-size="11" fill="#7b8794">400</text>
<text x="1040.0" y="832" text-anchor="middle" font-size="12" fill="#486581">Concurrency</text>
<line x1="1160" y1="546" x2="1178" y2="546" stroke="#33658a" stroke-width="3"/>
<text x="1184" y="550" font-size="12" fill="#334e68">Total tok/s</text>
<path d="M 790.0 684.4 L 828.5 562.7 L 879.7 563.1 L 931.0 588.6 L 982.3 589.7 L 1033.6 587.7 L 1161.8 590.8 L 1290.0 590.8" fill="none" stroke="#33658a" stroke-width="3"/>
<circle cx="790.0" cy="684.4" r="4" fill="#33658a"/>
<circle cx="828.5" cy="562.7" r="4" fill="#33658a"/>
<circle cx="879.7" cy="563.1" r="4" fill="#33658a"/>
<circle cx="931.0" cy="588.6" r="4" fill="#33658a"/>
<circle cx="982.3" cy="589.7" r="4" fill="#33658a"/>
<circle cx="1033.6" cy="587.7" r="4" fill="#33658a"/>
<circle cx="1161.8" cy="590.8" r="4" fill="#33658a"/>
<circle cx="1290.0" cy="590.8" r="4" fill="#33658a"/>
<line x1="1160" y1="564" x2="1178" y2="564" stroke="#0b6e4f" stroke-width="3"/>
<text x="1184" y="568" font-size="12" fill="#334e68">Output tok/s</text>
<path d="M 790.0 778.3 L 828.5 764.8 L 879.7 764.8 L 931.0 767.6 L 982.3 767.7 L 1033.6 767.5 L 1161.8 767.9 L 1290.0 767.9" fill="none" stroke="#0b6e4f" stroke-width="3"/>
<circle cx="790.0" cy="778.3" r="4" fill="#0b6e4f"/>
<circle cx="828.5" cy="764.8" r="4" fill="#0b6e4f"/>
<circle cx="879.7" cy="764.8" r="4" fill="#0b6e4f"/>
<circle cx="931.0" cy="767.6" r="4" fill="#0b6e4f"/>
<circle cx="982.3" cy="767.7" r="4" fill="#0b6e4f"/>
<circle cx="1033.6" cy="767.5" r="4" fill="#0b6e4f"/>
<circle cx="1161.8" cy="767.9" r="4" fill="#0b6e4f"/>
<circle cx="1290.0" cy="767.9" r="4" fill="#0b6e4f"/>
</svg>
