<svg xmlns="http://www.w3.org/2000/svg" width="1500" height="980" viewBox="0 0 1500 980">
<rect width="100%" height="100%" fill="#f7fafc"/>
<text x="60" y="42" font-size="30" font-weight="700" fill="#102a43">VLLM Benchmark Comparison: 2k vs 10k Input Context</text>
<text x="60" y="68" font-size="13" fill="#486581">Same endpoint and output length; comparison date 2026-03-30 14:58:41</text>
<rect x="60" y="110" width="760" height="250" rx="16" fill="#ffffff" stroke="#d9e2ec"/>
<text x="78" y="134" font-size="18" font-weight="700" fill="#102a43">Mean Latency Comparison</text>
<text x="78" y="154" font-size="12" fill="#486581">10k input pushes latency up at every stable concurrency</text>
<line x1="116" y1="144.0" x2="790" y2="144.0" stroke="#e6edf3"/>
<text x="108" y="148.0" text-anchor="end" font-size="11" fill="#7b8794">191928.3</text>
<line x1="116" y1="185.5" x2="790" y2="185.5" stroke="#e6edf3"/>
<text x="108" y="189.5" text-anchor="end" font-size="11" fill="#7b8794">143946.2</text>
<line x1="116" y1="227.0" x2="790" y2="227.0" stroke="#e6edf3"/>
<text x="108" y="231.0" text-anchor="end" font-size="11" fill="#7b8794">95964.2</text>
<line x1="116" y1="268.5" x2="790" y2="268.5" stroke="#e6edf3"/>
<text x="108" y="272.5" text-anchor="end" font-size="11" fill="#7b8794">47982.1</text>
<line x1="116" y1="310.0" x2="790" y2="310.0" stroke="#e6edf3"/>
<text x="108" y="314.0" text-anchor="end" font-size="11" fill="#7b8794">0.0</text>
<line x1="116.0" y1="144" x2="116.0" y2="310" stroke="#f0f4f8"/>
<text x="116.0" y="330" text-anchor="middle" font-size="11" fill="#7b8794">5</text>
<line x1="137.7" y1="144" x2="137.7" y2="310" stroke="#f0f4f8"/>
<text x="137.7" y="330" text-anchor="middle" font-size="11" fill="#7b8794">10</text>
<line x1="181.2" y1="144" x2="181.2" y2="310" stroke="#f0f4f8"/>
<text x="181.2" y="330" text-anchor="middle" font-size="11" fill="#7b8794">20</text>
<line x1="268.2" y1="144" x2="268.2" y2="310" stroke="#f0f4f8"/>
<text x="268.2" y="330" text-anchor="middle" font-size="11" fill="#7b8794">40</text>
<line x1="442.1" y1="144" x2="442.1" y2="310" stroke="#f0f4f8"/>
<text x="442.1" y="330" text-anchor="middle" font-size="11" fill="#7b8794">80</text>
<line x1="790.0" y1="144" x2="790.0" y2="310" stroke="#f0f4f8"/>
<text x="790.0" y="330" text-anchor="middle" font-size="11" fill="#7b8794">160</text>
<text x="453.0" y="350" text-anchor="middle" font-size="12" fill="#486581">Concurrency</text>
<line x1="650" y1="134" x2="668" y2="134" stroke="#1d4ed8" stroke-width="3"/>
<text x="674" y="138" font-size="12" fill="#334e68">2k Mean</text>
<path d="M 116.0 263.5 L 137.7 259.4 L 181.2 251.3 L 268.2 238.0 L 442.1 208.3 L 790.0 159.1" fill="none" stroke="#1d4ed8" stroke-width="3"/>
<circle cx="116.0" cy="263.5" r="4" fill="#1d4ed8"/>
<circle cx="137.7" cy="259.4" r="4" fill="#1d4ed8"/>
<circle cx="181.2" cy="251.3" r="4" fill="#1d4ed8"/>
<circle cx="268.2" cy="238.0" r="4" fill="#1d4ed8"/>
<circle cx="442.1" cy="208.3" r="4" fill="#1d4ed8"/>
<circle cx="790.0" cy="159.1" r="4" fill="#1d4ed8"/>
<line x1="650" y1="152" x2="668" y2="152" stroke="#b45309" stroke-width="3"/>
<text x="674" y="156" font-size="12" fill="#334e68">10k Mean</text>
<path d="M 116.0 257.7 L 137.7 250.8 L 181.2 237.2 L 268.2 211.0" fill="none" stroke="#b45309" stroke-width="3"/>
<circle cx="116.0" cy="257.7" r="4" fill="#b45309"/>
<circle cx="137.7" cy="250.8" r="4" fill="#b45309"/>
<circle cx="181.2" cy="237.2" r="4" fill="#b45309"/>
<circle cx="268.2" cy="211.0" r="4" fill="#b45309"/>
<rect x="900" y="120" width="730" height="260" rx="16" fill="#ffffff" stroke="#d9e2ec"/><text x="918" y="146" font-size="18" font-weight="700" fill="#102a43">2k vs 10k Summary</text><rect x="916" y="164" width="70" height="32" fill="#eaf2f8" stroke="#d9e2ec"/><text x="951.0" y="185" text-anchor="middle" font-size="11" font-weight="700" fill="#102a43">并发</text><rect x="986" y="164" width="110" height="32" fill="#eaf2f8" stroke="#d9e2ec"/><text x="1041.0" y="185" text-anchor="middle" font-size="11" font-weight="700" fill="#102a43">2k Mean</text><rect x="1096" y="164" width="110" height="32" fill="#eaf2f8" stroke="#d9e2ec"/><text x="1151.0" y="185" text-anchor="middle" font-size="11" font-weight="700" fill="#102a43">10k Mean</text><rect x="1206" y="164" width="120" height="32" fill="#eaf2f8" stroke="#d9e2ec"/><text x="1266.0" y="185" text-anchor="middle" font-size="11" font-weight="700" fill="#102a43">2k Timeout%</text><rect x="1326" y="164" width="120" height="32" fill="#eaf2f8" stroke="#d9e2ec"/><text x="1386.0" y="185" text-anchor="middle" font-size="11" font-weight="700" fill="#102a43">10k Timeout%</text><rect x="1446" y="164" width="100" height="32" fill="#eaf2f8" stroke="#d9e2ec"/><text x="1496.0" y="185" text-anchor="middle" font-size="11" font-weight="700" fill="#102a43">2k req/s</text><rect x="1546" y="164" width="100" height="32" fill="#eaf2f8" stroke="#d9e2ec"/><text x="1596.0" y="185" text-anchor="middle" font-size="11" font-weight="700" fill="#102a43">10k req/s</text><rect x="916" y="196" width="70" height="32" fill="#ffffff" stroke="#d9e2ec"/><text x="951.0" y="217" text-anchor="middle" font-size="11" fill="#243b53">5</text><rect x="986" y="196" width="110" height="32" fill="#ffffff" stroke="#d9e2ec"/><text x="1041.0" y="217" text-anchor="middle" font-size="11" fill="#243b53">53723.67</text><rect x="1096" y="196" width="110" height="32" fill="#ffffff" stroke="#d9e2ec"/><text x="1151.0" y="217" text-anchor="middle" font-size="11" fill="#243b53">60502.36</text><rect x="1206" y="196" width="120" height="32" fill="#ffffff" stroke="#d9e2ec"/><text x="1266.0" y="217" text-anchor="middle" font-size="11" fill="#243b53">0.00%</text><rect x="1326" y="196" width="120" height="32" fill="#ffffff" stroke="#d9e2ec"/><text x="1386.0" y="217" text-anchor="middle" font-size="11" fill="#243b53">0.00%</text><rect x="1446" y="196" width="100" height="32" fill="#ffffff" stroke="#d9e2ec"/><text x="1496.0" y="217" text-anchor="middle" font-size="11" fill="#243b53">0.09</text><rect x="1546" y="196" width="100" height="32" fill="#ffffff" stroke="#d9e2ec"/><text x="1596.0" y="217" text-anchor="middle" font-size="11" fill="#243b53">0.08</text><rect x="916" y="228" width="70" height="32" fill="#f8fbfd" stroke="#d9e2ec"/><text x="951.0" y="249" text-anchor="middle" font-size="11" fill="#243b53">10</text><rect x="986" y="228" width="110" height="32" fill="#f8fbfd" stroke="#d9e2ec"/><text x="1041.0" y="249" text-anchor="middle" font-size="11" fill="#243b53">58459.94</text><rect x="1096" y="228" width="110" height="32" fill="#f8fbfd" stroke="#d9e2ec"/><text x="1151.0" y="249" text-anchor="middle" font-size="11" fill="#243b53">68501.00</text><rect x="1206" y="228" width="120" height="32" fill="#f8fbfd" stroke="#d9e2ec"/><text x="1266.0" y="249" text-anchor="middle" font-size="11" fill="#243b53">0.00%</text><rect x="1326" y="228" width="120" height="32" fill="#f8fbfd" stroke="#d9e2ec"/><text x="1386.0" y="249" text-anchor="middle" font-size="11" fill="#243b53">0.00%</text><rect x="1446" y="228" width="100" height="32" fill="#f8fbfd" stroke="#d9e2ec"/><text x="1496.0" y="249" text-anchor="middle" font-size="11" fill="#243b53">0.16</text><rect x="1546" y="228" width="100" height="32" fill="#f8fbfd" stroke="#d9e2ec"/><text x="1596.0" y="249" text-anchor="middle" font-size="11" fill="#243b53">0.14</text><rect x="916" y="260" width="70" height="32" fill="#ffffff" stroke="#d9e2ec"/><text x="951.0" y="281" text-anchor="middle" font-size="11" fill="#243b53">20</text><rect x="986" y="260" width="110" height="32" fill="#ffffff" stroke="#d9e2ec"/><text x="1041.0" y="281" text-anchor="middle" font-size="11" fill="#243b53">67825.09</text><rect x="1096" y="260" width="110" height="32" fill="#ffffff" stroke="#d9e2ec"/><text x="1151.0" y="281" text-anchor="middle" font-size="11" fill="#243b53">84188.99</text><rect x="1206" y="260" width="120" height="32" fill="#ffffff" stroke="#d9e2ec"/><text x="1266.0" y="281" text-anchor="middle" font-size="11" fill="#243b53">0.00%</text><rect x="1326" y="260" width="120" height="32" fill="#ffffff" stroke="#d9e2ec"/><text x="1386.0" y="281" text-anchor="middle" font-size="11" fill="#243b53">0.00%</text><rect x="1446" y="260" width="100" height="32" fill="#ffffff" stroke="#d9e2ec"/><text x="1496.0" y="281" text-anchor="middle" font-size="11" fill="#243b53">0.28</text><rect x="1546" y="260" width="100" height="32" fill="#ffffff" stroke="#d9e2ec"/><text x="1596.0" y="281" text-anchor="middle" font-size="11" fill="#243b53">0.23</text><rect x="916" y="292" width="70" height="32" fill="#f8fbfd" stroke="#d9e2ec"/><text x="951.0" y="313" text-anchor="middle" font-size="11" fill="#243b53">40</text><rect x="986" y="292" width="110" height="32" fill="#f8fbfd" stroke="#d9e2ec"/><text x="1041.0" y="313" text-anchor="middle" font-size="11" fill="#243b53">83235.00</text><rect x="1096" y="292" width="110" height="32" fill="#f8fbfd" stroke="#d9e2ec"/><text x="1151.0" y="313" text-anchor="middle" font-size="11" fill="#243b53">114460.30</text><rect x="1206" y="292" width="120" height="32" fill="#f8fbfd" stroke="#d9e2ec"/><text x="1266.0" y="313" text-anchor="middle" font-size="11" fill="#243b53">0.00%</text><rect x="1326" y="292" width="120" height="32" fill="#f8fbfd" stroke="#d9e2ec"/><text x="1386.0" y="313" text-anchor="middle" font-size="11" fill="#243b53">0.00%</text><rect x="1446" y="292" width="100" height="32" fill="#f8fbfd" stroke="#d9e2ec"/><text x="1496.0" y="313" text-anchor="middle" font-size="11" fill="#243b53">0.46</text><rect x="1546" y="292" width="100" height="32" fill="#f8fbfd" stroke="#d9e2ec"/><text x="1596.0" y="313" text-anchor="middle" font-size="11" fill="#243b53">0.34</text><rect x="916" y="324" width="70" height="32" fill="#ffffff" stroke="#d9e2ec"/><text x="951.0" y="345" text-anchor="middle" font-size="11" fill="#243b53">80</text><rect x="986" y="324" width="110" height="32" fill="#ffffff" stroke="#d9e2ec"/><text x="1041.0" y="345" text-anchor="middle" font-size="11" fill="#243b53">117575.98</text><rect x="1096" y="324" width="110" height="32" fill="#ffffff" stroke="#d9e2ec"/><text x="1151.0" y="345" text-anchor="middle" font-size="11" fill="#243b53">N/A</text><rect x="1206" y="324" width="120" height="32" fill="#ffffff" stroke="#d9e2ec"/><text x="1266.0" y="345" text-anchor="middle" font-size="11" fill="#243b53">0.00%</text><rect x="1326" y="324" width="120" height="32" fill="#ffffff" stroke="#d9e2ec"/><text x="1386.0" y="345" text-anchor="middle" font-size="11" fill="#243b53">100.00%</text><rect x="1446" y="324" width="100" height="32" fill="#ffffff" stroke="#d9e2ec"/><text x="1496.0" y="345" text-anchor="middle" font-size="11" fill="#243b53">0.65</text><rect x="1546" y="324" width="100" height="32" fill="#ffffff" stroke="#d9e2ec"/><text x="1596.0" y="345" text-anchor="middle" font-size="11" fill="#243b53">0.00</text><rect x="916" y="356" width="70" height="32" fill="#f8fbfd" stroke="#d9e2ec"/><text x="951.0" y="377" text-anchor="middle" font-size="11" fill="#243b53">160</text><rect x="986" y="356" width="110" height="32" fill="#f8fbfd" stroke="#d9e2ec"/><text x="1041.0" y="377" text-anchor="middle" font-size="11" fill="#243b53">174480.29</text><rect x="1096" y="356" width="110" height="32" fill="#f8fbfd" stroke="#d9e2ec"/><text x="1151.0" y="377" text-anchor="middle" font-size="11" fill="#243b53">N/A</text><rect x="1206" y="356" width="120" height="32" fill="#f8fbfd" stroke="#d9e2ec"/><text x="1266.0" y="377" text-anchor="middle" font-size="11" fill="#243b53">48.75%</text><rect x="1326" y="356" width="120" height="32" fill="#f8fbfd" stroke="#d9e2ec"/><text x="1386.0" y="377" text-anchor="middle" font-size="11" fill="#243b53">100.00%</text><rect x="1446" y="356" width="100" height="32" fill="#f8fbfd" stroke="#d9e2ec"/><text x="1496.0" y="377" text-anchor="middle" font-size="11" fill="#243b53">0.45</text><rect x="1546" y="356" width="100" height="32" fill="#f8fbfd" stroke="#d9e2ec"/><text x="1596.0" y="377" text-anchor="middle" font-size="11" fill="#243b53">0.00</text>
<rect x="60" y="400" width="660" height="250" rx="16" fill="#ffffff" stroke="#d9e2ec"/>
<text x="78" y="424" font-size="18" font-weight="700" fill="#102a43">Timeout Ratio Comparison</text>
<text x="78" y="444" font-size="12" fill="#486581">Timeout cliff appears much earlier for 10k input</text>
<line x1="116" y1="434.0" x2="690" y2="434.0" stroke="#e6edf3"/>
<text x="108" y="438.0" text-anchor="end" font-size="11" fill="#7b8794">110.0</text>
<line x1="116" y1="475.5" x2="690" y2="475.5" stroke="#e6edf3"/>
<text x="108" y="479.5" text-anchor="end" font-size="11" fill="#7b8794">82.5</text>
<line x1="116" y1="517.0" x2="690" y2="517.0" stroke="#e6edf3"/>
<text x="108" y="521.0" text-anchor="end" font-size="11" fill="#7b8794">55.0</text>
<line x1="116" y1="558.5" x2="690" y2="558.5" stroke="#e6edf3"/>
<text x="108" y="562.5" text-anchor="end" font-size="11" fill="#7b8794">27.5</text>
<line x1="116" y1="600.0" x2="690" y2="600.0" stroke="#e6edf3"/>
<text x="108" y="604.0" text-anchor="end" font-size="11" fill="#7b8794">0.0</text>
<line x1="116.0" y1="434" x2="116.0" y2="600" stroke="#f0f4f8"/>
<text x="116.0" y="620" text-anchor="middle" font-size="11" fill="#7b8794">5</text>
<line x1="134.5" y1="434" x2="134.5" y2="600" stroke="#f0f4f8"/>
<text x="134.5" y="620" text-anchor="middle" font-size="11" fill="#7b8794">10</text>
<line x1="171.5" y1="434" x2="171.5" y2="600" stroke="#f0f4f8"/>
<text x="171.5" y="620" text-anchor="middle" font-size="11" fill="#7b8794">20</text>
<line x1="245.6" y1="434" x2="245.6" y2="600" stroke="#f0f4f8"/>
<text x="245.6" y="620" text-anchor="middle" font-size="11" fill="#7b8794">40</text>
<line x1="393.7" y1="434" x2="393.7" y2="600" stroke="#f0f4f8"/>
<text x="393.7" y="620" text-anchor="middle" font-size="11" fill="#7b8794">80</text>
<line x1="690.0" y1="434" x2="690.0" y2="600" stroke="#f0f4f8"/>
<text x="690.0" y="620" text-anchor="middle" font-size="11" fill="#7b8794">160</text>
<text x="403.0" y="640" text-anchor="middle" font-size="12" fill="#486581">Concurrency</text>
<line x1="550" y1="424" x2="568" y2="424" stroke="#1d4ed8" stroke-width="3"/>
<text x="574" y="428" font-size="12" fill="#334e68">2k Timeout %</text>
<path d="M 116.0 600.0 L 134.5 600.0 L 171.5 600.0 L 245.6 600.0 L 393.7 600.0 L 690.0 526.4" fill="none" stroke="#1d4ed8" stroke-width="3"/>
<circle cx="116.0" cy="600.0" r="4" fill="#1d4ed8"/>
<circle cx="134.5" cy="600.0" r="4" fill="#1d4ed8"/>
<circle cx="171.5" cy="600.0" r="4" fill="#1d4ed8"/>
<circle cx="245.6" cy="600.0" r="4" fill="#1d4ed8"/>
<circle cx="393.7" cy="600.0" r="4" fill="#1d4ed8"/>
<circle cx="690.0" cy="526.4" r="4" fill="#1d4ed8"/>
<line x1="550" y1="442" x2="568" y2="442" stroke="#b45309" stroke-width="3"/>
<text x="574" y="446" font-size="12" fill="#334e68">10k Timeout %</text>
<path d="M 116.0 600.0 L 134.5 600.0 L 171.5 600.0 L 245.6 600.0 L 393.7 449.1 L 690.0 449.1" fill="none" stroke="#b45309" stroke-width="3"/>
<circle cx="116.0" cy="600.0" r="4" fill="#b45309"/>
<circle cx="134.5" cy="600.0" r="4" fill="#b45309"/>
<circle cx="171.5" cy="600.0" r="4" fill="#b45309"/>
<circle cx="245.6" cy="600.0" r="4" fill="#b45309"/>
<circle cx="393.7" cy="449.1" r="4" fill="#b45309"/>
<circle cx="690.0" cy="449.1" r="4" fill="#b45309"/>
<rect x="780" y="400" width="660" height="250" rx="16" fill="#ffffff" stroke="#d9e2ec"/>
<text x="798" y="424" font-size="18" font-weight="700" fill="#102a43">Successful req/s Comparison</text>
<text x="798" y="444" font-size="12" fill="#486581">Practical throughput peak shifts lower under 10k input</text>
<line x1="836" y1="434.0" x2="1410" y2="434.0" stroke="#e6edf3"/>
<text x="828" y="438.0" text-anchor="end" font-size="11" fill="#7b8794">0.7</text>
<line x1="836" y1="475.5" x2="1410" y2="475.5" stroke="#e6edf3"/>
<text x="828" y="479.5" text-anchor="end" font-size="11" fill="#7b8794">0.5</text>
<line x1="836" y1="517.0" x2="1410" y2="517.0" stroke="#e6edf3"/>
<text x="828" y="521.0" text-anchor="end" font-size="11" fill="#7b8794">0.4</text>
<line x1="836" y1="558.5" x2="1410" y2="558.5" stroke="#e6edf3"/>
<text x="828" y="562.5" text-anchor="end" font-size="11" fill="#7b8794">0.2</text>
<line x1="836" y1="600.0" x2="1410" y2="600.0" stroke="#e6edf3"/>
<text x="828" y="604.0" text-anchor="end" font-size="11" fill="#7b8794">0.0</text>
<line x1="836.0" y1="434" x2="836.0" y2="600" stroke="#f0f4f8"/>
<text x="836.0" y="620" text-anchor="middle" font-size="11" fill="#7b8794">5</text>
<line x1="854.5" y1="434" x2="854.5" y2="600" stroke="#f0f4f8"/>
<text x="854.5" y="620" text-anchor="middle" font-size="11" fill="#7b8794">10</text>
<line x1="891.5" y1="434" x2="891.5" y2="600" stroke="#f0f4f8"/>
<text x="891.5" y="620" text-anchor="middle" font-size="11" fill="#7b8794">20</text>
<line x1="965.6" y1="434" x2="965.6" y2="600" stroke="#f0f4f8"/>
<text x="965.6" y="620" text-anchor="middle" font-size="11" fill="#7b8794">40</text>
<line x1="1113.7" y1="434" x2="1113.7" y2="600" stroke="#f0f4f8"/>
<text x="1113.7" y="620" text-anchor="middle" font-size="11" fill="#7b8794">80</text>
<line x1="1410.0" y1="434" x2="1410.0" y2="600" stroke="#f0f4f8"/>
<text x="1410.0" y="620" text-anchor="middle" font-size="11" fill="#7b8794">160</text>
<text x="1123.0" y="640" text-anchor="middle" font-size="12" fill="#486581">Concurrency</text>
<line x1="1270" y1="424" x2="1288" y2="424" stroke="#1d4ed8" stroke-width="3"/>
<text x="1294" y="428" font-size="12" fill="#334e68">2k req/s</text>
<path d="M 836.0 579.2 L 854.5 562.2 L 891.5 534.4 L 965.6 492.4 L 1113.7 449.1 L 1410.0 496.3" fill="none" stroke="#1d4ed8" stroke-width="3"/>
<circle cx="836.0" cy="579.2" r="4" fill="#1d4ed8"/>
<circle cx="854.5" cy="562.2" r="4" fill="#1d4ed8"/>
<circle cx="891.5" cy="534.4" r="4" fill="#1d4ed8"/>
<circle cx="965.6" cy="492.4" r="4" fill="#1d4ed8"/>
<circle cx="1113.7" cy="449.1" r="4" fill="#1d4ed8"/>
<circle cx="1410.0" cy="496.3" r="4" fill="#1d4ed8"/>
<line x1="1270" y1="442" x2="1288" y2="442" stroke="#b45309" stroke-width="3"/>
<text x="1294" y="446" font-size="12" fill="#334e68">10k req/s</text>
<path d="M 836.0 582.0 L 854.5 567.6 L 891.5 547.0 L 965.6 521.4 L 1113.7 600.0 L 1410.0 600.0" fill="none" stroke="#b45309" stroke-width="3"/>
<circle cx="836.0" cy="582.0" r="4" fill="#b45309"/>
<circle cx="854.5" cy="567.6" r="4" fill="#b45309"/>
<circle cx="891.5" cy="547.0" r="4" fill="#b45309"/>
<circle cx="965.6" cy="521.4" r="4" fill="#b45309"/>
<circle cx="1113.7" cy="600.0" r="4" fill="#b45309"/>
<circle cx="1410.0" cy="600.0" r="4" fill="#b45309"/>
<rect x="60" y="690" width="660" height="250" rx="16" fill="#ffffff" stroke="#d9e2ec"/>
<text x="78" y="714" font-size="18" font-weight="700" fill="#102a43">Total tok/s Comparison</text>
<text x="78" y="734" font-size="12" fill="#486581">Longer prompts increase total tok/s but reduce stable concurrency headroom</text>
<line x1="116" y1="724.0" x2="690" y2="724.0" stroke="#e6edf3"/>
<text x="108" y="728.0" text-anchor="end" font-size="11" fill="#7b8794">4100.3</text>
<line x1="116" y1="765.5" x2="690" y2="765.5" stroke="#e6edf3"/>
<text x="108" y="769.5" text-anchor="end" font-size="11" fill="#7b8794">3075.2</text>
<line x1="116" y1="807.0" x2="690" y2="807.0" stroke="#e6edf3"/>
<text x="108" y="811.0" text-anchor="end" font-size="11" fill="#7b8794">2050.2</text>
<line x1="116" y1="848.5" x2="690" y2="848.5" stroke="#e6edf3"/>
<text x="108" y="852.5" text-anchor="end" font-size="11" fill="#7b8794">1025.1</text>
<line x1="116" y1="890.0" x2="690" y2="890.0" stroke="#e6edf3"/>
<text x="108" y="894.0" text-anchor="end" font-size="11" fill="#7b8794">0.0</text>
<line x1="116.0" y1="724" x2="116.0" y2="890" stroke="#f0f4f8"/>
<text x="116.0" y="910" text-anchor="middle" font-size="11" fill="#7b8794">5</text>
<line x1="134.5" y1="724" x2="134.5" y2="890" stroke="#f0f4f8"/>
<text x="134.5" y="910" text-anchor="middle" font-size="11" fill="#7b8794">10</text>
<line x1="171.5" y1="724" x2="171.5" y2="890" stroke="#f0f4f8"/>
<text x="171.5" y="910" text-anchor="middle" font-size="11" fill="#7b8794">20</text>
<line x1="245.6" y1="724" x2="245.6" y2="890" stroke="#f0f4f8"/>
<text x="245.6" y="910" text-anchor="middle" font-size="11" fill="#7b8794">40</text>
<line x1="393.7" y1="724" x2="393.7" y2="890" stroke="#f0f4f8"/>
<text x="393.7" y="910" text-anchor="middle" font-size="11" fill="#7b8794">80</text>
<line x1="690.0" y1="724" x2="690.0" y2="890" stroke="#f0f4f8"/>
<text x="690.0" y="910" text-anchor="middle" font-size="11" fill="#7b8794">160</text>
<text x="403.0" y="930" text-anchor="middle" font-size="12" fill="#486581">Concurrency</text>
<line x1="550" y1="714" x2="568" y2="714" stroke="#1d4ed8" stroke-width="3"/>
<text x="574" y="718" font-size="12" fill="#334e68">2k tok/s</text>
<path d="M 116.0 878.8 L 134.5 869.8 L 171.5 854.9 L 245.6 832.4 L 393.7 809.2 L 690.0 834.5" fill="none" stroke="#1d4ed8" stroke-width="3"/>
<circle cx="116.0" cy="878.8" r="4" fill="#1d4ed8"/>
<circle cx="134.5" cy="869.8" r="4" fill="#1d4ed8"/>
<circle cx="171.5" cy="854.9" r="4" fill="#1d4ed8"/>
<circle cx="245.6" cy="832.4" r="4" fill="#1d4ed8"/>
<circle cx="393.7" cy="809.2" r="4" fill="#1d4ed8"/>
<circle cx="690.0" cy="834.5" r="4" fill="#1d4ed8"/>
<line x1="550" y1="732" x2="568" y2="732" stroke="#b45309" stroke-width="3"/>
<text x="574" y="736" font-size="12" fill="#334e68">10k tok/s</text>
<path d="M 116.0 855.4 L 134.5 827.9 L 171.5 788.3 L 245.6 739.1 L 393.7 890.0 L 690.0 890.0" fill="none" stroke="#b45309" stroke-width="3"/>
<circle cx="116.0" cy="855.4" r="4" fill="#b45309"/>
<circle cx="134.5" cy="827.9" r="4" fill="#b45309"/>
<circle cx="171.5" cy="788.3" r="4" fill="#b45309"/>
<circle cx="245.6" cy="739.1" r="4" fill="#b45309"/>
<circle cx="393.7" cy="890.0" r="4" fill="#b45309"/>
<circle cx="690.0" cy="890.0" r="4" fill="#b45309"/>
<rect x="780" y="690" width="660" height="250" rx="16" fill="#ffffff" stroke="#d9e2ec"/>
<text x="800" y="718" font-size="18" font-weight="700" fill="#102a43">Interpretation</text>
<text x="800" y="748" font-size="13" fill="#243b53">1. 2k input remains stable through concurrency 80, while 10k input saturates before 80.</text>
<text x="800" y="774" font-size="13" fill="#243b53">2. At concurrency 40, mean latency rises from 83.24s to 114.46s when input grows from 2k to 10k.</text>
<text x="800" y="800" font-size="13" fill="#243b53">3. At concurrency 80, 2k still has 0% timeout and 0.65 req/s, but 10k becomes 100% timeout.</text>
<text x="800" y="826" font-size="13" fill="#243b53">4. 10k input improves total successful tok/s at low stable concurrency, but loses queueing headroom quickly.</text>
<text x="800" y="852" font-size="13" fill="#243b53">5. For production, 10k input should keep concurrency at or below 40 under this timeout budget.</text>
</svg>