<svg xmlns="http://www.w3.org/2000/svg" width="1380" height="960" viewBox="0 0 1380 960">
<rect width="100%" height="100%" fill="#f7fafc"/>
<text x="70" y="38" font-size="28" font-weight="700" fill="#102a43">VLLM Throughput Benchmark</text>
<text x="70" y="62" font-size="13" fill="#486581">Endpoint: http://127.0.0.1:62272/v1/completions | Payload target: 2048/1024 tokens</text>
<rect x="70" y="80" width="590" height="320" rx="14" fill="#ffffff" stroke="#d8dee9"/>
<text x="90" y="108" font-size="18" font-weight="700" fill="#102a43">Latency</text>
<text x="90" y="128" font-size="12" fill="#486581">Latency (ms)</text>
<line x1="120" y1="100.0" x2="620" y2="100.0" stroke="#e6edf3"/>
<text x="112" y="104.0" text-anchor="end" font-size="11" fill="#7b8794">1812.2</text>
<line x1="120" y1="162.5" x2="620" y2="162.5" stroke="#e6edf3"/>
<text x="112" y="166.5" text-anchor="end" font-size="11" fill="#7b8794">1359.1</text>
<line x1="120" y1="225.0" x2="620" y2="225.0" stroke="#e6edf3"/>
<text x="112" y="229.0" text-anchor="end" font-size="11" fill="#7b8794">906.1</text>
<line x1="120" y1="287.5" x2="620" y2="287.5" stroke="#e6edf3"/>
<text x="112" y="291.5" text-anchor="end" font-size="11" fill="#7b8794">453.0</text>
<line x1="120" y1="350.0" x2="620" y2="350.0" stroke="#e6edf3"/>
<text x="112" y="354.0" text-anchor="end" font-size="11" fill="#7b8794">0.0</text>
<line x1="370.0" y1="100" x2="370.0" y2="350" stroke="#f0f4f8"/>
<text x="370.0" y="372" text-anchor="middle" font-size="11" fill="#7b8794">2</text>
<text x="370.0" y="392" text-anchor="middle" font-size="12" fill="#486581">Concurrency</text>
<line x1="490" y1="106" x2="508" y2="106" stroke="#0b6e4f" stroke-width="3"/>
<text x="514" y="110" font-size="12" fill="#334e68">Mean</text>
<path d="M 370.0 128.9" fill="none" stroke="#0b6e4f" stroke-width="3"/>
<circle cx="370.0" cy="128.9" r="4" fill="#0b6e4f"/>
<line x1="490" y1="124" x2="508" y2="124" stroke="#c44900" stroke-width="3"/>
<text x="514" y="128" font-size="12" fill="#334e68">P99</text>
<path d="M 370.0 122.7" fill="none" stroke="#c44900" stroke-width="3"/>
<circle cx="370.0" cy="122.7" r="4" fill="#c44900"/>
<rect x="740" y="80" width="590" height="320" rx="14" fill="#ffffff" stroke="#d8dee9"/>
<text x="760" y="108" font-size="18" font-weight="700" fill="#102a43">Failure Ratio</text>
<text x="760" y="128" font-size="12" fill="#486581">Rate (%)</text>
<line x1="790" y1="100.0" x2="1290" y2="100.0" stroke="#e6edf3"/>
<text x="782" y="104.0" text-anchor="end" font-size="11" fill="#7b8794">1.1</text>
<line x1="790" y1="162.5" x2="1290" y2="162.5" stroke="#e6edf3"/>
<text x="782" y="166.5" text-anchor="end" font-size="11" fill="#7b8794">0.8</text>
<line x1="790" y1="225.0" x2="1290" y2="225.0" stroke="#e6edf3"/>
<text x="782" y="229.0" text-anchor="end" font-size="11" fill="#7b8794">0.6</text>
<line x1="790" y1="287.5" x2="1290" y2="287.5" stroke="#e6edf3"/>
<text x="782" y="291.5" text-anchor="end" font-size="11" fill="#7b8794">0.3</text>
<line x1="790" y1="350.0" x2="1290" y2="350.0" stroke="#e6edf3"/>
<text x="782" y="354.0" text-anchor="end" font-size="11" fill="#7b8794">0.0</text>
<line x1="1040.0" y1="100" x2="1040.0" y2="350" stroke="#f0f4f8"/>
<text x="1040.0" y="372" text-anchor="middle" font-size="11" fill="#7b8794">2</text>
<text x="1040.0" y="392" text-anchor="middle" font-size="12" fill="#486581">Concurrency</text>
<line x1="1160" y1="106" x2="1178" y2="106" stroke="#9a031e" stroke-width="3"/>
<text x="1184" y="110" font-size="12" fill="#334e68">Timeout</text>
<path d="M 1040.0 350.0" fill="none" stroke="#9a031e" stroke-width="3"/>
<circle cx="1040.0" cy="350.0" r="4" fill="#9a031e"/>
<line x1="1160" y1="124" x2="1178" y2="124" stroke="#5f0f40" stroke-width="3"/>
<text x="1184" y="128" font-size="12" fill="#334e68">Error</text>
<path d="M 1040.0 350.0" fill="none" stroke="#5f0f40" stroke-width="3"/>
<circle cx="1040.0" cy="350.0" r="4" fill="#5f0f40"/>
<rect x="70" y="520" width="590" height="320" rx="14" fill="#ffffff" stroke="#d8dee9"/>
<text x="90" y="548" font-size="18" font-weight="700" fill="#102a43">Request Throughput</text>
<text x="90" y="568" font-size="12" fill="#486581">req/s</text>
<line x1="120" y1="540.0" x2="620" y2="540.0" stroke="#e6edf3"/>
<text x="112" y="544.0" text-anchor="end" font-size="11" fill="#7b8794">0.7</text>
<line x1="120" y1="602.5" x2="620" y2="602.5" stroke="#e6edf3"/>
<text x="112" y="606.5" text-anchor="end" font-size="11" fill="#7b8794">0.5</text>
<line x1="120" y1="665.0" x2="620" y2="665.0" stroke="#e6edf3"/>
<text x="112" y="669.0" text-anchor="end" font-size="11" fill="#7b8794">0.3</text>
<line x1="120" y1="727.5" x2="620" y2="727.5" stroke="#e6edf3"/>
<text x="112" y="731.5" text-anchor="end" font-size="11" fill="#7b8794">0.2</text>
<line x1="120" y1="790.0" x2="620" y2="790.0" stroke="#e6edf3"/>
<text x="112" y="794.0" text-anchor="end" font-size="11" fill="#7b8794">0.0</text>
<line x1="370.0" y1="540" x2="370.0" y2="790" stroke="#f0f4f8"/>
<text x="370.0" y="812" text-anchor="middle" font-size="11" fill="#7b8794">2</text>
<text x="370.0" y="832" text-anchor="middle" font-size="12" fill="#486581">Concurrency</text>
<line x1="490" y1="546" x2="508" y2="546" stroke="#005f73" stroke-width="3"/>
<text x="514" y="550" font-size="12" fill="#334e68">Successful req/s</text>
<path d="M 370.0 562.7" fill="none" stroke="#005f73" stroke-width="3"/>
<circle cx="370.0" cy="562.7" r="4" fill="#005f73"/>
<rect x="740" y="520" width="590" height="320" rx="14" fill="#ffffff" stroke="#d8dee9"/>
<text x="760" y="548" font-size="18" font-weight="700" fill="#102a43">Token Throughput</text>
<text x="760" y="568" font-size="12" fill="#486581">tok/s</text>
<line x1="790" y1="540.0" x2="1290" y2="540.0" stroke="#e6edf3"/>
<text x="782" y="544.0" text-anchor="end" font-size="11" fill="#7b8794">68.5</text>
<line x1="790" y1="602.5" x2="1290" y2="602.5" stroke="#e6edf3"/>
<text x="782" y="606.5" text-anchor="end" font-size="11" fill="#7b8794">51.4</text>
<line x1="790" y1="665.0" x2="1290" y2="665.0" stroke="#e6edf3"/>
<text x="782" y="669.0" text-anchor="end" font-size="11" fill="#7b8794">34.2</text>
<line x1="790" y1="727.5" x2="1290" y2="727.5" stroke="#e6edf3"/>
<text x="782" y="731.5" text-anchor="end" font-size="11" fill="#7b8794">17.1</text>
<line x1="790" y1="790.0" x2="1290" y2="790.0" stroke="#e6edf3"/>
<text x="782" y="794.0" text-anchor="end" font-size="11" fill="#7b8794">0.0</text>
<line x1="1040.0" y1="540" x2="1040.0" y2="790" stroke="#f0f4f8"/>
<text x="1040.0" y="812" text-anchor="middle" font-size="11" fill="#7b8794">2</text>
<text x="1040.0" y="832" text-anchor="middle" font-size="12" fill="#486581">Concurrency</text>
<line x1="1160" y1="546" x2="1178" y2="546" stroke="#33658a" stroke-width="3"/>
<text x="1184" y="550" font-size="12" fill="#334e68">Total tok/s</text>
<path d="M 1040.0 562.7" fill="none" stroke="#33658a" stroke-width="3"/>
<circle cx="1040.0" cy="562.7" r="4" fill="#33658a"/>
<line x1="1160" y1="564" x2="1178" y2="564" stroke="#0b6e4f" stroke-width="3"/>
<text x="1184" y="568" font-size="12" fill="#334e68">Output tok/s</text>
<path d="M 1040.0 716.5" fill="none" stroke="#0b6e4f" stroke-width="3"/>
<circle cx="1040.0" cy="716.5" r="4" fill="#0b6e4f"/>
</svg>
