<svg xmlns="http://www.w3.org/2000/svg" width="1380" height="960" viewBox="0 0 1380 960">
<rect width="100%" height="100%" fill="#f7fafc"/>
<text x="70" y="38" font-size="28" font-weight="700" fill="#102a43">VLLM Throughput Benchmark</text>
<text x="70" y="62" font-size="13" fill="#486581">Endpoint: http://127.0.0.1:62274/v1/completions | Payload target: 2024/1024 tokens</text>
<rect x="70" y="80" width="590" height="320" rx="14" fill="#ffffff" stroke="#d8dee9"/>
<text x="90" y="108" font-size="18" font-weight="700" fill="#102a43">Latency</text>
<text x="90" y="128" font-size="12" fill="#486581">Latency (ms)</text>
<line x1="120" y1="100.0" x2="620" y2="100.0" stroke="#e6edf3"/>
<text x="112" y="104.0" text-anchor="end" font-size="11" fill="#7b8794">140156.2</text>
<line x1="120" y1="162.5" x2="620" y2="162.5" stroke="#e6edf3"/>
<text x="112" y="166.5" text-anchor="end" font-size="11" fill="#7b8794">105117.2</text>
<line x1="120" y1="225.0" x2="620" y2="225.0" stroke="#e6edf3"/>
<text x="112" y="229.0" text-anchor="end" font-size="11" fill="#7b8794">70078.1</text>
<line x1="120" y1="287.5" x2="620" y2="287.5" stroke="#e6edf3"/>
<text x="112" y="291.5" text-anchor="end" font-size="11" fill="#7b8794">35039.1</text>
<line x1="120" y1="350.0" x2="620" y2="350.0" stroke="#e6edf3"/>
<text x="112" y="354.0" text-anchor="end" font-size="11" fill="#7b8794">0.0</text>
<line x1="120.0" y1="100" x2="120.0" y2="350" stroke="#f0f4f8"/>
<text x="120.0" y="372" text-anchor="middle" font-size="11" fill="#7b8794">5</text>
<line x1="130.6" y1="100" x2="130.6" y2="350" stroke="#f0f4f8"/>
<text x="130.6" y="372" text-anchor="middle" font-size="11" fill="#7b8794">10</text>
<line x1="151.9" y1="100" x2="151.9" y2="350" stroke="#f0f4f8"/>
<text x="151.9" y="372" text-anchor="middle" font-size="11" fill="#7b8794">20</text>
<line x1="194.5" y1="100" x2="194.5" y2="350" stroke="#f0f4f8"/>
<text x="194.5" y="372" text-anchor="middle" font-size="11" fill="#7b8794">40</text>
<line x1="279.6" y1="100" x2="279.6" y2="350" stroke="#f0f4f8"/>
<text x="279.6" y="372" text-anchor="middle" font-size="11" fill="#7b8794">80</text>
<line x1="449.8" y1="100" x2="449.8" y2="350" stroke="#f0f4f8"/>
<text x="449.8" y="372" text-anchor="middle" font-size="11" fill="#7b8794">160</text>
<line x1="620.0" y1="100" x2="620.0" y2="350" stroke="#f0f4f8"/>
<text x="620.0" y="372" text-anchor="middle" font-size="11" fill="#7b8794">240</text>
<text x="370.0" y="392" text-anchor="middle" font-size="12" fill="#486581">Concurrency</text>
<line x1="490" y1="106" x2="508" y2="106" stroke="#0b6e4f" stroke-width="3"/>
<text x="514" y="110" font-size="12" fill="#334e68">Mean</text>
<path d="M 120.0 218.6 L 130.6 122.8 L 151.9 143.5 L 194.5 124.7" fill="none" stroke="#0b6e4f" stroke-width="3"/>
<circle cx="120.0" cy="218.6" r="4" fill="#0b6e4f"/>
<circle cx="130.6" cy="122.8" r="4" fill="#0b6e4f"/>
<circle cx="151.9" cy="143.5" r="4" fill="#0b6e4f"/>
<circle cx="194.5" cy="124.7" r="4" fill="#0b6e4f"/>
<line x1="490" y1="124" x2="508" y2="124" stroke="#c44900" stroke-width="3"/>
<text x="514" y="128" font-size="12" fill="#334e68">P99</text>
<path d="M 120.0 217.6 L 130.6 122.7 L 151.9 143.3 L 194.5 124.5" fill="none" stroke="#c44900" stroke-width="3"/>
<circle cx="120.0" cy="217.6" r="4" fill="#c44900"/>
<circle cx="130.6" cy="122.7" r="4" fill="#c44900"/>
<circle cx="151.9" cy="143.3" r="4" fill="#c44900"/>
<circle cx="194.5" cy="124.5" r="4" fill="#c44900"/>
<rect x="740" y="80" width="590" height="320" rx="14" fill="#ffffff" stroke="#d8dee9"/>
<text x="760" y="108" font-size="18" font-weight="700" fill="#102a43">Failure Ratio</text>
<text x="760" y="128" font-size="12" fill="#486581">Rate (%)</text>
<line x1="790" y1="100.0" x2="1290" y2="100.0" stroke="#e6edf3"/>
<text x="782" y="104.0" text-anchor="end" font-size="11" fill="#7b8794">110.0</text>
<line x1="790" y1="162.5" x2="1290" y2="162.5" stroke="#e6edf3"/>
<text x="782" y="166.5" text-anchor="end" font-size="11" fill="#7b8794">82.5</text>
<line x1="790" y1="225.0" x2="1290" y2="225.0" stroke="#e6edf3"/>
<text x="782" y="229.0" text-anchor="end" font-size="11" fill="#7b8794">55.0</text>
<line x1="790" y1="287.5" x2="1290" y2="287.5" stroke="#e6edf3"/>
<text x="782" y="291.5" text-anchor="end" font-size="11" fill="#7b8794">27.5</text>
<line x1="790" y1="350.0" x2="1290" y2="350.0" stroke="#e6edf3"/>
<text x="782" y="354.0" text-anchor="end" font-size="11" fill="#7b8794">0.0</text>
<line x1="790.0" y1="100" x2="790.0" y2="350" stroke="#f0f4f8"/>
<text x="790.0" y="372" text-anchor="middle" font-size="11" fill="#7b8794">5</text>
<line x1="800.6" y1="100" x2="800.6" y2="350" stroke="#f0f4f8"/>
<text x="800.6" y="372" text-anchor="middle" font-size="11" fill="#7b8794">10</text>
<line x1="821.9" y1="100" x2="821.9" y2="350" stroke="#f0f4f8"/>
<text x="821.9" y="372" text-anchor="middle" font-size="11" fill="#7b8794">20</text>
<line x1="864.5" y1="100" x2="864.5" y2="350" stroke="#f0f4f8"/>
<text x="864.5" y="372" text-anchor="middle" font-size="11" fill="#7b8794">40</text>
<line x1="949.6" y1="100" x2="949.6" y2="350" stroke="#f0f4f8"/>
<text x="949.6" y="372" text-anchor="middle" font-size="11" fill="#7b8794">80</text>
<line x1="1119.8" y1="100" x2="1119.8" y2="350" stroke="#f0f4f8"/>
<text x="1119.8" y="372" text-anchor="middle" font-size="11" fill="#7b8794">160</text>
<line x1="1290.0" y1="100" x2="1290.0" y2="350" stroke="#f0f4f8"/>
<text x="1290.0" y="372" text-anchor="middle" font-size="11" fill="#7b8794">240</text>
<text x="1040.0" y="392" text-anchor="middle" font-size="12" fill="#486581">Concurrency</text>
<line x1="1160" y1="106" x2="1178" y2="106" stroke="#9a031e" stroke-width="3"/>
<text x="1184" y="110" font-size="12" fill="#334e68">Timeout</text>
<path d="M 790.0 350.0 L 800.6 350.0 L 821.9 350.0 L 864.5 350.0 L 949.6 122.7 L 1119.8 122.7 L 1290.0 122.7" fill="none" stroke="#9a031e" stroke-width="3"/>
<circle cx="790.0" cy="350.0" r="4" fill="#9a031e"/>
<circle cx="800.6" cy="350.0" r="4" fill="#9a031e"/>
<circle cx="821.9" cy="350.0" r="4" fill="#9a031e"/>
<circle cx="864.5" cy="350.0" r="4" fill="#9a031e"/>
<circle cx="949.6" cy="122.7" r="4" fill="#9a031e"/>
<circle cx="1119.8" cy="122.7" r="4" fill="#9a031e"/>
<circle cx="1290.0" cy="122.7" r="4" fill="#9a031e"/>
<line x1="1160" y1="124" x2="1178" y2="124" stroke="#5f0f40" stroke-width="3"/>
<text x="1184" y="128" font-size="12" fill="#334e68">Error</text>
<path d="M 790.0 350.0 L 800.6 350.0 L 821.9 350.0 L 864.5 350.0 L 949.6 350.0 L 1119.8 350.0 L 1290.0 350.0" fill="none" stroke="#5f0f40" stroke-width="3"/>
<circle cx="790.0" cy="350.0" r="4" fill="#5f0f40"/>
<circle cx="800.6" cy="350.0" r="4" fill="#5f0f40"/>
<circle cx="821.9" cy="350.0" r="4" fill="#5f0f40"/>
<circle cx="864.5" cy="350.0" r="4" fill="#5f0f40"/>
<circle cx="949.6" cy="350.0" r="4" fill="#5f0f40"/>
<circle cx="1119.8" cy="350.0" r="4" fill="#5f0f40"/>
<circle cx="1290.0" cy="350.0" r="4" fill="#5f0f40"/>
<rect x="70" y="520" width="590" height="320" rx="14" fill="#ffffff" stroke="#d8dee9"/>
<text x="90" y="548" font-size="18" font-weight="700" fill="#102a43">Request Throughput</text>
<text x="90" y="568" font-size="12" fill="#486581">req/s</text>
<line x1="120" y1="540.0" x2="620" y2="540.0" stroke="#e6edf3"/>
<text x="112" y="544.0" text-anchor="end" font-size="11" fill="#7b8794">0.3</text>
<line x1="120" y1="602.5" x2="620" y2="602.5" stroke="#e6edf3"/>
<text x="112" y="606.5" text-anchor="end" font-size="11" fill="#7b8794">0.3</text>
<line x1="120" y1="665.0" x2="620" y2="665.0" stroke="#e6edf3"/>
<text x="112" y="669.0" text-anchor="end" font-size="11" fill="#7b8794">0.2</text>
<line x1="120" y1="727.5" x2="620" y2="727.5" stroke="#e6edf3"/>
<text x="112" y="731.5" text-anchor="end" font-size="11" fill="#7b8794">0.1</text>
<line x1="120" y1="790.0" x2="620" y2="790.0" stroke="#e6edf3"/>
<text x="112" y="794.0" text-anchor="end" font-size="11" fill="#7b8794">0.0</text>
<line x1="120.0" y1="540" x2="120.0" y2="790" stroke="#f0f4f8"/>
<text x="120.0" y="812" text-anchor="middle" font-size="11" fill="#7b8794">5</text>
<line x1="130.6" y1="540" x2="130.6" y2="790" stroke="#f0f4f8"/>
<text x="130.6" y="812" text-anchor="middle" font-size="11" fill="#7b8794">10</text>
<line x1="151.9" y1="540" x2="151.9" y2="790" stroke="#f0f4f8"/>
<text x="151.9" y="812" text-anchor="middle" font-size="11" fill="#7b8794">20</text>
<line x1="194.5" y1="540" x2="194.5" y2="790" stroke="#f0f4f8"/>
<text x="194.5" y="812" text-anchor="middle" font-size="11" fill="#7b8794">40</text>
<line x1="279.6" y1="540" x2="279.6" y2="790" stroke="#f0f4f8"/>
<text x="279.6" y="812" text-anchor="middle" font-size="11" fill="#7b8794">80</text>
<line x1="449.8" y1="540" x2="449.8" y2="790" stroke="#f0f4f8"/>
<text x="449.8" y="812" text-anchor="middle" font-size="11" fill="#7b8794">160</text>
<line x1="620.0" y1="540" x2="620.0" y2="790" stroke="#f0f4f8"/>
<text x="620.0" y="812" text-anchor="middle" font-size="11" fill="#7b8794">240</text>
<text x="370.0" y="832" text-anchor="middle" font-size="12" fill="#486581">Concurrency</text>
<line x1="490" y1="546" x2="508" y2="546" stroke="#005f73" stroke-width="3"/>
<text x="514" y="550" font-size="12" fill="#334e68">Successful req/s</text>
<path d="M 120.0 742.0 L 130.6 733.6 L 151.9 666.4 L 194.5 562.7 L 279.6 790.0 L 449.8 790.0 L 620.0 790.0" fill="none" stroke="#005f73" stroke-width="3"/>
<circle cx="120.0" cy="742.0" r="4" fill="#005f73"/>
<circle cx="130.6" cy="733.6" r="4" fill="#005f73"/>
<circle cx="151.9" cy="666.4" r="4" fill="#005f73"/>
<circle cx="194.5" cy="562.7" r="4" fill="#005f73"/>
<circle cx="279.6" cy="790.0" r="4" fill="#005f73"/>
<circle cx="449.8" cy="790.0" r="4" fill="#005f73"/>
<circle cx="620.0" cy="790.0" r="4" fill="#005f73"/>
<rect x="740" y="520" width="590" height="320" rx="14" fill="#ffffff" stroke="#d8dee9"/>
<text x="760" y="548" font-size="18" font-weight="700" fill="#102a43">Token Throughput</text>
<text x="760" y="568" font-size="12" fill="#486581">tok/s</text>
<line x1="790" y1="540.0" x2="1290" y2="540.0" stroke="#e6edf3"/>
<text x="782" y="544.0" text-anchor="end" font-size="11" fill="#7b8794">1028.2</text>
<line x1="790" y1="602.5" x2="1290" y2="602.5" stroke="#e6edf3"/>
<text x="782" y="606.5" text-anchor="end" font-size="11" fill="#7b8794">771.2</text>
<line x1="790" y1="665.0" x2="1290" y2="665.0" stroke="#e6edf3"/>
<text x="782" y="669.0" text-anchor="end" font-size="11" fill="#7b8794">514.1</text>
<line x1="790" y1="727.5" x2="1290" y2="727.5" stroke="#e6edf3"/>
<text x="782" y="731.5" text-anchor="end" font-size="11" fill="#7b8794">257.1</text>
<line x1="790" y1="790.0" x2="1290" y2="790.0" stroke="#e6edf3"/>
<text x="782" y="794.0" text-anchor="end" font-size="11" fill="#7b8794">0.0</text>
<line x1="790.0" y1="540" x2="790.0" y2="790" stroke="#f0f4f8"/>
<text x="790.0" y="812" text-anchor="middle" font-size="11" fill="#7b8794">5</text>
<line x1="800.6" y1="540" x2="800.6" y2="790" stroke="#f0f4f8"/>
<text x="800.6" y="812" text-anchor="middle" font-size="11" fill="#7b8794">10</text>
<line x1="821.9" y1="540" x2="821.9" y2="790" stroke="#f0f4f8"/>
<text x="821.9" y="812" text-anchor="middle" font-size="11" fill="#7b8794">20</text>
<line x1="864.5" y1="540" x2="864.5" y2="790" stroke="#f0f4f8"/>
<text x="864.5" y="812" text-anchor="middle" font-size="11" fill="#7b8794">40</text>
<line x1="949.6" y1="540" x2="949.6" y2="790" stroke="#f0f4f8"/>
<text x="949.6" y="812" text-anchor="middle" font-size="11" fill="#7b8794">80</text>
<line x1="1119.8" y1="540" x2="1119.8" y2="790" stroke="#f0f4f8"/>
<text x="1119.8" y="812" text-anchor="middle" font-size="11" fill="#7b8794">160</text>
<line x1="1290.0" y1="540" x2="1290.0" y2="790" stroke="#f0f4f8"/>
<text x="1290.0" y="812" text-anchor="middle" font-size="11" fill="#7b8794">240</text>
<text x="1040.0" y="832" text-anchor="middle" font-size="12" fill="#486581">Concurrency</text>
<line x1="1160" y1="546" x2="1178" y2="546" stroke="#33658a" stroke-width="3"/>
<text x="1184" y="550" font-size="12" fill="#334e68">Total tok/s</text>
<path d="M 790.0 742.0 L 800.6 733.6 L 821.9 666.4 L 864.5 562.7 L 949.6 790.0 L 1119.8 790.0 L 1290.0 790.0" fill="none" stroke="#33658a" stroke-width="3"/>
<circle cx="790.0" cy="742.0" r="4" fill="#33658a"/>
<circle cx="800.6" cy="733.6" r="4" fill="#33658a"/>
<circle cx="821.9" cy="666.4" r="4" fill="#33658a"/>
<circle cx="864.5" cy="562.7" r="4" fill="#33658a"/>
<circle cx="949.6" cy="790.0" r="4" fill="#33658a"/>
<circle cx="1119.8" cy="790.0" r="4" fill="#33658a"/>
<circle cx="1290.0" cy="790.0" r="4" fill="#33658a"/>
<line x1="1160" y1="564" x2="1178" y2="564" stroke="#0b6e4f" stroke-width="3"/>
<text x="1184" y="568" font-size="12" fill="#334e68">Output tok/s</text>
<path d="M 790.0 773.9 L 800.6 771.1 L 821.9 748.5 L 864.5 713.7 L 949.6 790.0 L 1119.8 790.0 L 1290.0 790.0" fill="none" stroke="#0b6e4f" stroke-width="3"/>
<circle cx="790.0" cy="773.9" r="4" fill="#0b6e4f"/>
<circle cx="800.6" cy="771.1" r="4" fill="#0b6e4f"/>
<circle cx="821.9" cy="748.5" r="4" fill="#0b6e4f"/>
<circle cx="864.5" cy="713.7" r="4" fill="#0b6e4f"/>
<circle cx="949.6" cy="790.0" r="4" fill="#0b6e4f"/>
<circle cx="1119.8" cy="790.0" r="4" fill="#0b6e4f"/>
<circle cx="1290.0" cy="790.0" r="4" fill="#0b6e4f"/>
</svg>
